<?xml version="1.0" encoding="utf-8"?>
<!-- Generator: Adobe Illustrator 16.0.3, SVG Export Plug-In . SVG Version: 6.00 Build 0)  -->
<!DOCTYPE svg PUBLIC "-//W3C//DTD SVG 1.1//EN" "http://www.w3.org/Graphics/SVG/1.1/DTD/svg11.dtd">
<svg version="1.1" id="Ebene_1" xmlns="http://www.w3.org/2000/svg" xmlns:xlink="http://www.w3.org/1999/xlink" x="0px" y="0px"
	 width="53px" height="53px" viewBox="53.377 88.5 53 53" enable-background="new 53.377 88.5 53 53" xml:space="preserve">
<g>
	<polygon fill-opacity="0.6" stroke="#FFFFFF" stroke-width="3" stroke-miterlimit="10" points="78.385,120.051 69.031,104.305 
		54.877,123.256 54.877,140.399 104.877,140.399 104.877,128.04 91.188,112.875 	"/>
</g>
<path opacity="0.6" enable-background="new    " d="M97.285,107.702c0.771-0.593,1.423-1.342,1.896-2.219l5.225-1.257l-4.445-3.005
	c-0.135-0.993-0.482-1.93-1-2.76l1.526-5.162l-4.853,2.36c-0.431-0.173-0.889-0.306-1.364-0.392
	c-0.495-0.09-0.986-0.121-1.471-0.108l-3.734-3.931l-0.387,5.446c-0.728,0.578-1.343,1.298-1.799,2.133l-5.317,1.278l4.537,3.067
	c0.134,0.936,0.457,1.822,0.936,2.613l-1.554,5.245l4.892-2.38c0.444,0.184,0.912,0.321,1.402,0.41
	c0.472,0.086,0.938,0.121,1.399,0.111l3.729,3.927L97.285,107.702z"/>
</svg>
