<?xml version="1.0" encoding="utf-8"?>
<!-- Generator: Adobe Illustrator 16.0.3, SVG Export Plug-In . SVG Version: 6.00 Build 0)  -->
<!DOCTYPE svg PUBLIC "-//W3C//DTD SVG 1.1//EN" "http://www.w3.org/Graphics/SVG/1.1/DTD/svg11.dtd">
<svg version="1.1" id="Ebene_1" xmlns="http://www.w3.org/2000/svg" xmlns:xlink="http://www.w3.org/1999/xlink" x="0px" y="0px"
	 width="53px" height="53px" viewBox="-2.363 122.385 53 53" enable-background="new -2.363 122.385 53 53" xml:space="preserve">
<g>
	<polygon fill-opacity="0.6" stroke="#FFFFFF" stroke-width="3" stroke-miterlimit="10" points="-0.863,157.243 -0.863,174.385 
		49.137,174.385 49.137,162.026 35.686,145.25 27.094,149.557 22.645,154.038 13.291,138.292 	"/>
</g>
<path opacity="0.6" d="M42.465,140.833c0.653-0.721,1.161-1.574,1.47-2.521l4.917-2.168l-4.911-2.165
	c-0.309-0.952-0.817-1.812-1.475-2.536l0.582-5.352l-4.354,3.188c-0.456-0.094-0.929-0.143-1.412-0.143
	c-0.504,0-0.993,0.056-1.467,0.156l-4.375-3.202l0.59,5.428c-0.613,0.698-1.091,1.517-1.39,2.419l-5.004,2.206l5.01,2.209
	c0.299,0.897,0.775,1.711,1.387,2.405l-0.593,5.438l4.388-3.213c0.47,0.1,0.955,0.153,1.454,0.153c0.479,0,0.945-0.049,1.396-0.14
	l4.369,3.199L42.465,140.833z"/>
<polygon stroke="#FFFFFF" stroke-width="3" stroke-miterlimit="10" points="4.784,151.332 13.847,151.332 13.847,167.631 
	32.426,167.631 32.427,151.859 41.488,151.859 23.362,130.239 "/>
</svg>
