<?xml version="1.0" encoding="utf-8"?>
<!-- Generator: Adobe Illustrator 16.0.3, SVG Export Plug-In . SVG Version: 6.00 Build 0)  -->
<!DOCTYPE svg PUBLIC "-//W3C//DTD SVG 1.1//EN" "http://www.w3.org/Graphics/SVG/1.1/DTD/svg11.dtd">
<svg version="1.1" id="Ebene_1" xmlns="http://www.w3.org/2000/svg" xmlns:xlink="http://www.w3.org/1999/xlink" x="0px" y="0px"
	 width="53px" height="53px" viewBox="-2.333 122.667 53 53" enable-background="new -2.333 122.667 53 53" xml:space="preserve">
<g>
	<polygon fill="#603813" fill-opacity="0.6" stroke="#FFFFFF" stroke-width="3" stroke-miterlimit="10" points="-0.863,157.243 
		-0.863,174.385 49.137,174.385 49.137,162.025 35.686,145.25 27.094,149.557 22.645,154.038 13.291,138.292 	"/>
</g>
<path opacity="0.6" fill="#FBB03B" enable-background="new    " d="M42.465,140.833c0.653-0.722,1.161-1.574,1.471-2.521
	l4.916-2.168l-4.91-2.166c-0.31-0.951-0.817-1.812-1.476-2.535l0.582-5.353l-4.354,3.188c-0.455-0.094-0.928-0.143-1.411-0.143
	c-0.505,0-0.993,0.055-1.468,0.155l-4.375-3.202l0.59,5.428c-0.612,0.698-1.09,1.518-1.389,2.42l-5.004,2.205l5.01,2.209
	c0.299,0.897,0.774,1.711,1.387,2.405l-0.594,5.438l4.389-3.213c0.47,0.1,0.955,0.152,1.454,0.152c0.479,0,0.944-0.049,1.396-0.14
	l4.369,3.198L42.465,140.833z"/>
<polygon fill="#0071BC" stroke="#FFFFFF" stroke-width="3" stroke-miterlimit="10" points="4.784,151.332 13.847,151.332 
	13.847,167.631 32.426,167.631 32.428,151.859 41.488,151.859 23.362,130.238 "/>
</svg>
