<?xml version="1.0" encoding="utf-8"?>
<!-- Generator: Adobe Illustrator 16.0.3, SVG Export Plug-In . SVG Version: 6.00 Build 0)  -->
<!DOCTYPE svg PUBLIC "-//W3C//DTD SVG 1.1//EN" "http://www.w3.org/Graphics/SVG/1.1/DTD/svg11.dtd">
<svg version="1.1" id="Ebene_1" xmlns="http://www.w3.org/2000/svg" xmlns:xlink="http://www.w3.org/1999/xlink" x="0px" y="0px"
	 width="123.004px" height="123px" viewBox="0 0 123.004 123" enable-background="new 0 0 123.004 123" xml:space="preserve">
<g>
	<g>
		<g>
			<g>
				<path fill="#333333" d="M93.675,105.778c-0.32,0.305-0.85,0.29-1.183-0.03L67.271,79.577c-0.336-0.32-0.323-0.849,0.012-1.169
					l12.082-11.604c0.336-0.306,0.866-0.306,1.17,0.029l25.246,26.172c0.306,0.32,0.292,0.848-0.029,1.152L93.675,105.778z"/>
				<path fill="none" stroke="#333333" stroke-miterlimit="10" d="M93.675,105.778c-0.32,0.305-0.85,0.29-1.183-0.03L67.271,79.577
					c-0.336-0.32-0.323-0.849,0.012-1.169l12.082-11.604c0.336-0.306,0.866-0.306,1.17,0.029l25.246,26.172
					c0.306,0.32,0.292,0.848-0.029,1.152L93.675,105.778z"/>
			</g>
		</g>
	</g>
	<g>
		<path fill="#333333" stroke="#333333" stroke-miterlimit="10" d="M17.016,49.284c-0.101-3.396,0.349-6.869,1.427-10.293
			c5.169-16.519,22.747-25.721,39.27-20.548c13.099,4.091,21.582,15.99,21.986,28.973c0.102,3.399-0.354,6.872-1.439,10.294
			c-5.153,16.525-22.745,25.738-39.267,20.552C25.895,74.158,17.405,62.269,17.016,49.284 M25.503,49.034
			c0.293,9.723,6.729,18.223,16.027,21.115c5.824,1.825,12.004,1.28,17.417-1.563c5.397-2.816,9.378-7.585,11.204-13.41
			c0.782-2.447,1.13-4.976,1.043-7.51c-0.276-9.725-6.72-18.217-16.017-21.124c-5.824-1.823-12.009-1.266-17.421,1.56
			c-5.401,2.834-9.391,7.603-11.213,13.427v0C25.782,43.972,25.433,46.501,25.503,49.034L25.503,49.034z"/>
	</g>
</g>
<g>
	<polygon fill="#333333" points="65.119,51.705 31.577,51.704 31.577,45.001 65.123,45.005 	"/>
	<rect x="45.003" y="31.575" fill="#333333" width="6.697" height="33.545"/>
</g>
</svg>
